<?xml version="1.0" encoding="UTF-8"?>
<svg width="44px" height="44px" viewBox="0 0 44 44" version="1.1" xmlns="http://www.w3.org/2000/svg" xmlns:xlink="http://www.w3.org/1999/xlink">
    <!-- Generator: Sketch 49.3 (51167) - http://www.bohemiancoding.com/sketch -->
    <title>fb</title>
    <desc>Created with Sketch.</desc>
    <defs></defs>
    <g id="Symbols" stroke="none" stroke-width="1" fill="none" fill-rule="evenodd">
        <g id="site-header" transform="translate(-1009.000000, -45.000000)">
            <g id="Group" transform="translate(1009.000000, 45.000000)">
                <g id="fb">
                    <path d="M0,22 C0,9.8494 9.82978182,0 21.9545455,0 C34.0793091,0 43.9090909,9.8494 43.9090909,22 C43.9090909,34.1498667 34.0793091,44 21.9545455,44 C9.82978182,44 0,34.1498667 0,22 Z" id="Shape" fill="#3B5998"></path>
                    <path d="M18.2878354,34.2222222 L23.155716,34.2222222 L23.155716,21.9985022 L26.4031351,21.9985022 L26.8333333,17.7866285 L23.155716,17.7866285 L23.1607687,15.6776961 C23.1607687,14.579793 23.2618219,13.9904003 24.7805083,13.9904003 L26.8102354,13.9904003 L26.8102354,9.77777778 L23.5620945,9.77777778 C19.6607163,9.77777778 18.2878354,11.821555 18.2878354,15.2575572 L18.2878354,17.7866285 L15.8560606,17.7866285 L15.8560606,21.9992511 L18.2878354,21.9992511 L18.2878354,34.2222222 L18.2878354,34.2222222 Z" id="Path" fill="#FFFFFF"></path>
                </g>
            </g>
        </g>
    </g>
</svg>