<?xml version="1.0" encoding="UTF-8"?>
<svg width="44px" height="44px" viewBox="0 0 44 44" version="1.1" xmlns="http://www.w3.org/2000/svg" xmlns:xlink="http://www.w3.org/1999/xlink">
    <!-- Generator: Sketch 49.3 (51167) - http://www.bohemiancoding.com/sketch -->
    <title>ig</title>
    <desc>Created with Sketch.</desc>
    <defs></defs>
    <g id="Symbols" stroke="none" stroke-width="1" fill="none" fill-rule="evenodd">
        <g id="site-header" transform="translate(-1126.000000, -45.000000)">
            <g id="Group" transform="translate(1009.000000, 45.000000)">
                <g id="ig" transform="translate(117.000000, 0.000000)">
                    <ellipse id="Oval" fill="#7549BC" cx="22.0454545" cy="22" rx="21.9545455" ry="22"></ellipse>
                    <path d="M29.0840056,36.6666667 L16.2266005,36.6666667 C12.0372311,36.6666667 8.62878788,33.2515181 8.62878788,29.0531236 L8.62878788,16.1690986 C8.62878788,11.9707042 12.0372311,8.55555556 16.2266005,8.55555556 L29.0840056,8.55555556 C33.2737257,8.55555556 36.6818182,11.9707042 36.6818182,16.1690986 L36.6818182,29.053475 C36.6818182,33.2515181 33.2737257,36.6666667 29.0840056,36.6666667 L29.0840056,36.6666667 Z M16.2824385,11 C13.4072974,11 11.0681818,13.3439233 11.0681818,16.2249739 L11.0681818,28.9972483 C11.0681818,31.8782989 13.4072974,34.2222222 16.2824385,34.2222222 L29.0281676,34.2222222 C31.9033087,34.2222222 34.2424242,31.8782989 34.2424242,28.9972483 L34.2424242,16.2249739 C34.2424242,13.3439233 31.9033087,11 29.0281676,11 L16.2824385,11 L16.2824385,11 Z" id="Shape" fill="#FFFFFF"></path>
                    <path d="M22.655303,29.3333333 C18.956328,29.3333333 15.9469697,26.3174083 15.9469697,22.6111111 C15.9469697,18.9041417 18.956328,15.8888889 22.655303,15.8888889 C26.354278,15.8888889 29.3636364,18.9041417 29.3636364,22.6111111 C29.3636364,26.3174083 26.354278,29.3333333 22.655303,29.3333333 L22.655303,29.3333333 Z M22.655303,18.3333333 C20.301351,18.3333333 18.3863636,20.2522855 18.3863636,22.6111111 C18.3863636,24.9702576 20.301351,26.8888889 22.655303,26.8888889 C25.0092551,26.8888889 26.9242424,24.9702576 26.9242424,22.6111111 C26.9242424,20.2522855 25.0095752,18.3333333 22.655303,18.3333333 L22.655303,18.3333333 Z" id="Shape" fill="#FFFFFF"></path>
                    <ellipse id="Oval" fill="#FFFFFF" cx="29.9734848" cy="15.2777778" rx="1.82954545" ry="1.83333333"></ellipse>
                </g>
            </g>
        </g>
    </g>
</svg>