<?xml version="1.0" encoding="UTF-8"?>
<svg width="44px" height="45px" viewBox="0 0 44 45" version="1.1" xmlns="http://www.w3.org/2000/svg" xmlns:xlink="http://www.w3.org/1999/xlink">
    <!-- Generator: Sketch 49.3 (51167) - http://www.bohemiancoding.com/sketch -->
    <title>Jin &amp; Co. Logo</title>
    <desc>Created with Sketch.</desc>
    <defs></defs>
    <g id="Page-1" stroke="none" stroke-width="1" fill="none" fill-rule="evenodd">
        <g id="brenda-book-03" transform="translate(-1257.000000, -1116.000000)">
            <g id="site-gfooter" transform="translate(1257.000000, 1116.000000)">
                <g id="Jin-&amp;-Co.-Logo">
                    <g>
                        <rect id="Rectangle-path" fill="#0F1031" x="0" y="0" width="44.0005943" height="44.0345716"></rect>
                        <path d="M8.32443676,13.847717 L9.07720369,13.847717 C9.29708148,13.847717 9.44485588,13.7965158 9.52052689,13.693646 C9.59601013,13.5907761 9.63393952,13.4453556 9.63393952,13.2571505 L9.63393952,7.33909527 L11.8920525,7.33909527 L11.8920525,13.7317546 C11.8920525,14.5278269 11.7457803,15.0884675 11.4536113,15.4136765 C11.1614424,15.7391193 10.6957746,15.9013731 10.0567959,15.9013731 L8.32462453,15.9013731 L8.32462453,13.847717 L8.32443676,13.847717 Z" id="Shape" fill="#FFFFFF"></path>
                        <polygon id="Shape" fill="#FFFFFF" points="14.270463 7.33909527 16.6488735 7.33909527 16.6488735 15.9013731 14.270463 15.9013731"></polygon>
                        <polygon id="Shape" fill="#FFFFFF" points="19.027284 7.33909527 21.2257141 7.33909527 23.536937 10.6380878 23.536937 7.33909527 26.1625155 7.33909527 26.1625155 15.9013731 23.9515021 15.9013731 21.6526337 12.6152389 21.6526337 15.9013731 19.027284 15.9013731"></polygon>
                        <path d="M10.2971016,18.3477382 L12.2973429,18.3477382 L15.4596683,26.910016 L12.8345649,26.910016 L12.5598077,26.139916 L10.0348644,26.139916 L9.75965196,26.910016 L7.13523151,26.910016 L10.2971016,18.3477382 L10.2971016,18.3477382 Z M11.8920525,24.4636509 L11.2979312,23.2404684 L10.7028473,24.4636509 L11.8920525,24.4636509 L11.8920525,24.4636509 Z" id="Shape" fill="#FFFFFF"></path>
                        <polygon id="Shape" fill="#FFFFFF" points="16.6488735 18.3477382 18.8473036 18.3477382 21.1585265 21.6469645 21.1585265 18.3477382 23.784105 18.3477382 23.784105 26.910016 21.5728628 26.910016 19.2739945 23.6236481 19.2739945 26.910016 16.6488735 26.910016"></polygon>
                        <path d="M24.9733103,26.910016 L24.9733103,18.3477382 L27.2490293,18.3477382 C28.0199999,18.3477382 28.7071743,18.437513 29.3096562,18.6172966 C29.9123621,18.7970801 30.4207412,19.0668723 30.8352415,19.4262055 C31.2495178,19.7855388 31.5649862,20.2327766 31.7825429,20.7672176 C32.0000996,21.3025937 32.1085418,21.9209649 32.1085418,22.622331 C32.1085418,23.3241647 32.0000996,23.9423021 31.7825429,24.4772106 C31.5649862,25.0121192 31.2495178,25.459357 30.8352415,25.8189241 C30.4207412,26.1780235 29.9125861,26.4499198 29.3096562,26.6339115 C28.7071743,26.818137 28.0199999,26.910016 27.2490293,26.910016 L24.9733103,26.910016 L24.9733103,26.910016 Z M27.3517208,24.4636509 C28.1091149,24.4636509 28.6946122,24.3122957 29.1090406,24.0098183 C29.523193,23.707108 29.7301313,23.2446597 29.7301313,22.6224736 C29.7301313,22.0005203 29.523193,21.5404006 29.1090406,21.2418817 C28.6946122,20.9435956 28.1091149,20.7941033 27.3517208,20.7941033 L27.3517208,24.4636509 L27.3517208,24.4636509 Z" id="Shape" fill="#FFFFFF"></path>
                        <path d="M7.13523151,33.6377428 C7.13523151,32.9851899 7.24539491,32.3963551 7.46615203,31.8701243 C7.68626365,31.3438936 7.98577039,30.8931888 8.36381157,30.5180098 C8.74185276,30.1430537 9.18293667,29.8556542 9.68684814,29.6558113 C10.1907596,29.4561911 10.7267303,29.3563811 11.2934694,29.3563811 C11.7427295,29.3563811 12.1418566,29.4009391 12.4925721,29.4907236 C12.8428573,29.5807309 13.1440853,29.6823233 13.3964714,29.7966148 C13.6878019,29.9267243 13.9399728,30.0699785 14.1527689,30.224595 L12.9121397,32.4876991 C12.7860543,32.390117 12.6477046,32.296545 12.4988118,32.2065377 C12.3647654,32.1412602 12.2046842,32.0779877 12.0200744,32.0167204 C11.8348192,31.955453 11.6243899,31.9249308 11.388141,31.9249308 C11.143716,31.9249308 10.9193011,31.9699344 10.7146812,32.0594961 C10.5098462,32.148835 10.3308306,32.2713697 10.1769892,32.4264318 C10.0237932,32.5812711 9.90351716,32.7626224 9.81659136,32.9707085 C9.72988071,33.1785719 9.68663297,33.4009167 9.68663297,33.6372972 C9.68663297,33.8739005 9.73160202,34.0960225 9.82261592,34.3036631 C9.91276916,34.511972 10.0369181,34.6935461 10.1946325,34.8481626 C10.3521318,35.0030019 10.5371718,35.1255366 10.7497528,35.2150983 C10.9623337,35.3048828 11.1949248,35.3496636 11.4470957,35.3496636 C11.6986211,35.3496636 11.9236815,35.317359 12.1205555,35.2516359 C12.3169992,35.1865811 12.4824595,35.1132831 12.6165059,35.0315191 C12.7740052,34.9424029 12.9119246,34.8361319 13.0298338,34.7135973 L14.270463,36.9769242 C14.0578821,37.1560476 13.8059264,37.3155655 13.5145958,37.4541411 C13.2624249,37.5682097 12.9590453,37.6742579 12.604672,37.7720629 C12.2505139,37.869645 11.8445015,37.9186589 11.388141,37.9186589 C10.773851,37.9186589 10.2066817,37.8146158 9.68663297,37.607198 C9.16701461,37.3991119 8.71775451,37.1074793 8.33971333,36.7320776 C7.96210247,36.3571215 7.66668383,35.9066395 7.45388774,35.3808543 C7.24130681,34.8550691 7.13523151,34.2738092 7.13523151,33.6377428 L7.13523151,33.6377428 Z" id="Shape" fill="#FFFFFF"></path>
                        <path d="M15.4596683,33.63752 C15.4596683,33.0502752 15.5686076,32.4960018 15.7869194,31.9738084 C16.004798,31.4520606 16.3019446,30.9971464 16.6787924,30.609957 C17.055207,30.2227676 17.4970285,29.9168924 18.0044735,29.6925542 C18.5119184,29.468216 19.0512006,29.3563811 19.6216701,29.3563811 C20.1930059,29.3563811 20.7316383,29.4679932 21.2390833,29.6925542 C21.7465283,29.9168924 22.1887829,30.2227676 22.5654141,30.609957 C22.9418287,30.9971464 23.2389753,31.4520606 23.4572871,31.9738084 C23.6751657,32.4960018 23.784105,33.0502752 23.784105,33.63752 C23.784105,34.2247647 23.6751657,34.779261 23.4572871,35.3010088 C23.2389753,35.8232021 22.9418287,36.2776707 22.5654141,36.6648602 C22.1889995,37.0524952 21.7467448,37.3579248 21.2390833,37.582263 C20.7318549,37.806824 20.1930059,37.9186589 19.6216701,37.9186589 C19.0512006,37.9186589 18.5119184,37.806824 18.0044735,37.582263 C17.4972451,37.3579248 17.0554236,37.0524952 16.6787924,36.6648602 C16.3019446,36.2776707 16.004798,35.8232021 15.7869194,35.3010088 C15.5688242,34.779261 15.4596683,34.2247647 15.4596683,33.63752 L15.4596683,33.63752 Z M17.8380788,33.63752 C17.8380788,33.8910367 17.8849539,34.1290369 17.9782401,34.3515206 C18.0719904,34.5747204 18.1993886,34.7692742 18.360899,34.9349433 C18.5219453,35.1008512 18.7110702,35.2321452 18.9273456,35.3281091 C19.1438531,35.4243118 19.375212,35.4722938 19.6216546,35.4722938 C19.8680972,35.4722938 20.0994561,35.4245505 20.3164277,35.3281091 C20.5331672,35.2321452 20.7220601,35.1008512 20.8833384,34.9349433 C21.0448488,34.7692742 21.172015,34.5744816 21.2655332,34.3515206 C21.3588194,34.1287982 21.4056945,33.8910367 21.4056945,33.63752 C21.4056945,33.3840032 21.3588194,33.1457643 21.2655332,32.9232807 C21.172015,32.7000809 21.0446167,32.5060045 20.8833384,32.3400967 C20.721828,32.1739501 20.5331672,32.0426561 20.3164277,31.9469308 C20.0994561,31.8509669 19.8680972,31.8027462 19.6216546,31.8027462 C19.375212,31.8027462 19.1438531,31.8509669 18.9273456,31.9469308 C18.7108382,32.0426561 18.5219453,32.1739501 18.360899,32.3400967 C18.1993886,32.5060045 18.0717583,32.7003196 17.9782401,32.9232807 C17.8849539,33.1457643 17.8380788,33.3842419 17.8380788,33.63752 L17.8380788,33.63752 Z" id="Shape" fill="#FFFFFF"></path>
                    </g>
                </g>
            </g>
        </g>
    </g>
</svg>