<?xml version="1.0" encoding="UTF-8"?>
<svg width="45px" height="44px" viewBox="0 0 45 44" version="1.1" xmlns="http://www.w3.org/2000/svg" xmlns:xlink="http://www.w3.org/1999/xlink">
    <!-- Generator: Sketch 49.3 (51167) - http://www.bohemiancoding.com/sketch -->
    <title>twitter</title>
    <desc>Created with Sketch.</desc>
    <defs></defs>
    <g id="Symbols" stroke="none" stroke-width="1" fill="none" fill-rule="evenodd">
        <g id="site-header" transform="translate(-1067.000000, -45.000000)">
            <g id="Group" transform="translate(1009.000000, 45.000000)">
                <g id="twitter" transform="translate(58.000000, 0.000000)">
                    <ellipse id="Oval" fill="#4099FF" cx="22.5" cy="22" rx="21.9545455" ry="22"></ellipse>
                    <path d="M26.0399955,12.4528167 C23.9471499,13.2293384 22.6246377,15.2321613 22.7748687,17.424022 L22.8252121,18.2698032 L21.9877542,18.1663213 C18.940782,17.7695049 16.2781774,16.4234254 14.0175207,14.1614903 L12.9123639,13.0394857 L12.627884,13.8681558 C12.0253618,15.7153484 12.4105285,17.666023 13.6659162,18.9778802 C14.3355629,19.7030683 14.1845328,19.8065502 13.0298318,19.3746966 C12.627884,19.2369923 12.2762795,19.1335104 12.2427173,19.184844 C12.1260485,19.3062519 12.5271973,20.8764064 12.8452395,21.4981126 C13.2807495,22.3618198 14.1677516,23.2067862 15.1394585,23.7078994 L15.9601352,24.1047158 L14.9892275,24.121827 C14.051882,24.121827 14.0183198,24.1389382 14.1190065,24.502347 C14.4538298,25.6243516 15.776342,26.8156157 17.2498843,27.33384 L18.2879165,27.6956192 L17.3841332,28.2480659 C16.0448399,29.0433284 14.4706109,29.4914784 12.8963819,29.5248859 C12.1420306,29.5419971 11.5227273,29.6112566 11.5227273,29.663405 C11.5227273,29.8353316 13.5660286,30.8017059 14.7542918,31.182226 C18.3206796,32.3042305 22.5575132,31.8202286 25.7387344,29.9045912 C27.9993912,28.5405856 30.2592489,25.8305006 31.3148613,23.2059714 C31.8846203,21.8085583 32.4535803,19.2532887 32.4535803,18.0286171 C32.4535803,17.2341694 32.5039236,17.1306875 33.4412691,16.1814244 C33.994247,15.6289777 34.5128636,15.0251975 34.6135503,14.852456 C34.7813615,14.5240843 34.7637813,14.5240843 33.9103414,14.8174189 C32.4871425,15.3356432 32.285769,15.2663837 32.989777,14.489862 C33.5083936,13.9374153 34.128496,12.9360038 34.128496,12.6426693 C34.128496,12.5913358 33.8775783,12.6768917 33.5922992,12.8325219 C33.2910381,13.0052634 32.6213915,13.2643755 32.1187569,13.419191 L31.2149737,13.7133403 L30.3942969,13.1429676 C29.9420058,12.8325219 29.3067204,12.487039 28.971098,12.3835571 C28.116859,12.142371 26.8103289,12.1765933 26.0399955,12.4528167 Z" id="Path" fill="#FFFFFF"></path>
                </g>
            </g>
        </g>
    </g>
</svg>